HIERARCHY
ROOT Hips
{
	OFFSET 0.000000 0.000000 0.000000
	CHANNELS 6 Xposition Yposition Zposition Zrotation Yrotation Xrotation 
	JOINT LHipJoint
	{
		OFFSET 0.000000 0.000000 0.000000
		CHANNELS 3 Zrotation Yrotation Xrotation
		JOINT LeftUpLeg
		{
			OFFSET 8.178360 -10.767780 5.035740
			CHANNELS 3 Zrotation Yrotation Xrotation
			JOINT LeftLeg
			{
				OFFSET 14.688660 -40.356780 0.000000
				CHANNELS 3 Zrotation Yrotation Xrotation
				JOINT LeftFoot
				{
					OFFSET 15.373200 -42.237540 0.000000
					CHANNELS 3 Zrotation Yrotation Xrotation
					JOINT LeftToeBase
					{
						OFFSET 0.945840 -2.598660 13.935300
						CHANNELS 3 Zrotation Yrotation Xrotation
						End Site
						{
							OFFSET 0.000000 0.000000 0.000000
						}
					}
				}
			}
		}
	}
	JOINT RHipJoint
	{
		OFFSET 0.000000 0.000000 0.000000
		CHANNELS 3 Zrotation Yrotation Xrotation
		JOINT RightUpLeg
		{
			OFFSET -7.833120 -10.767780 5.035740
			CHANNELS 3 Zrotation Yrotation Xrotation
			JOINT RightLeg
			{
				OFFSET -15.255180 -41.913300 0.000000
				CHANNELS 3 Zrotation Yrotation Xrotation
				JOINT RightFoot
				{
					OFFSET -15.409560 -42.337380 0.000000
					CHANNELS 3 Zrotation Yrotation Xrotation
					JOINT RightToeBase
					{
						OFFSET -0.988380 -2.715540 14.178900
						CHANNELS 3 Zrotation Yrotation Xrotation
						End Site
						{
							OFFSET 0.000000 0.000000 0.000000
						}
					}
				}
			}
		}
	}
	JOINT LowerBack
	{
		OFFSET 0.000000 0.000000 0.000000
		CHANNELS 3 Zrotation Yrotation Xrotation
		JOINT Spine
		{
			OFFSET 0.169620 12.213540 -1.160280
			CHANNELS 3 Zrotation Yrotation Xrotation
			JOINT Spine1
			{
				OFFSET 0.340320 12.293100 -0.256500
				CHANNELS 3 Zrotation Yrotation Xrotation
				JOINT Neck
				{
					OFFSET 0.000000 0.000000 0.000000
					CHANNELS 3 Zrotation Yrotation Xrotation
					JOINT Neck1
					{
						OFFSET -0.325020 10.477440 1.032120
						CHANNELS 3 Zrotation Yrotation Xrotation
						JOINT Head
						{
							OFFSET 0.624420 10.568160 -0.743820
							CHANNELS 3 Zrotation Yrotation Xrotation
							End Site
							{
								OFFSET 0.000000 0.000000 0.000000
							}
						}
					}
				}
				JOINT LeftShoulder
				{
					OFFSET 0.000000 0.000000 0.000000
					CHANNELS 3 Zrotation Yrotation Xrotation
					JOINT LeftArm
					{
						OFFSET 20.174460 7.205340 -1.867260
						CHANNELS 3 Zrotation Yrotation Xrotation
						JOINT LeftForeArm
						{
							OFFSET 29.898000 -0.000000 -0.000000
							CHANNELS 3 Zrotation Yrotation Xrotation
							JOINT LeftHand
							{
								OFFSET 20.901360 -0.000000 -0.000000
								CHANNELS 3 Zrotation Yrotation Xrotation
								JOINT LeftFingerBase
								{
									OFFSET 0.000000 0.000000 0.000000
									CHANNELS 3 Zrotation Yrotation Xrotation
									JOINT LeftHandIndex1
									{
										OFFSET 4.291560 -0.000000 -0.000000
										CHANNELS 3 Zrotation Yrotation Xrotation
										End Site
										{
											OFFSET 0.000000 0.000000 0.000000
										}
									}
								}
								JOINT LThumb
								{
									OFFSET 0.000000 0.000000 0.000000
									CHANNELS 3 Zrotation Yrotation Xrotation
									End Site
									{
										OFFSET 0.000000 0.000000 0.000000
									}
								}
							}
						}
					}
				}
				JOINT RightShoulder
				{
					OFFSET 0.000000 0.000000 0.000000
					CHANNELS 3 Zrotation Yrotation Xrotation
					JOINT RightArm
					{
						OFFSET -18.819600 8.244300 -2.427900
						CHANNELS 3 Zrotation Yrotation Xrotation
						JOINT RightForeArm
						{
							OFFSET -31.451400 -0.000000 -0.000000
							CHANNELS 3 Zrotation Yrotation Xrotation
							JOINT RightHand
							{
								OFFSET -20.665020 -0.000000 -0.000000
								CHANNELS 3 Zrotation Yrotation Xrotation
								JOINT RightFingerBase
								{
									OFFSET 0.000000 0.000000 0.000000
									CHANNELS 3 Zrotation Yrotation Xrotation
									JOINT RightHandIndex1
									{
										OFFSET -3.735180 -0.000000 -0.000000
										CHANNELS 3 Zrotation Yrotation Xrotation
										End Site
										{
											OFFSET 0.000000 0.000000 0.000000
										}
									}
								}
								JOINT RThumb
								{
									OFFSET 0.000000 0.000000 0.000000
									CHANNELS 3 Zrotation Yrotation Xrotation
									End Site
									{
										OFFSET 0.000000 0.000000 0.000000
									}
								}
							}
						}
					}
				}
			}
		}
	}
}
MOTION
Frames:	7
Frame Time:	0.0333333
68.156244 108.391296 75.111000 14.376598 -70.912591 -7.172952 -3.397982 2.774632 4.041368 -17.726278 9.586157 5.168907 -1.665344 -0.031812 2.369263 -3.898753 22.928440 -1.519176 1.006400 -6.383300 -17.900600 -0.165933 -1.119588 0.083830 15.566485 -2.126992 -33.173544 -1.724199 -9.661213 26.997130 2.229653 -12.807017 3.044747 -0.893100 -6.023600 16.853000 -3.914855 -1.084572 8.516868 1.544257 -1.723340 0.960954 2.629183 -1.030090 -4.692230 -12.848500 -9.262970 -16.208905 9.057038 -11.406181 19.539691 4.565900 -5.408000 15.003600 -6.375699 -0.632864 -1.615582 -78.953030 4.999102 17.144731 15.884307 -23.010433 -3.837082 -1.396034 -2.386527 4.058068 21.294894 23.724502 10.366300 -7.125000 0.000000 0.000000 -8.266700 57.789700 -2.599800 5.009040 1.617846 -0.985386 82.897420 0.158642 15.229542 -20.459486 29.431257 -5.758739 0.368688 -0.089892 2.870837 -15.367890 8.810430 -2.488100 7.125000 0.000000 0.000000 8.026200 -20.810900 4.696600 
65.686740 108.403320 74.853774 15.707148 -72.666575 -8.462574 -3.299446 2.892629 4.052022 -17.233355 9.474445 6.613833 -1.620854 -0.024969 2.315463 -4.047720 24.322398 1.175915 1.234600 -7.046200 -19.852200 -0.167505 -1.146344 0.097037 16.047572 -1.329691 -31.909072 -1.760783 -9.727102 27.352985 2.019049 -11.622844 1.971963 -0.906900 -6.068700 16.983800 -4.004923 -1.178706 8.706468 1.572838 -1.867163 0.981762 2.750850 -1.103774 -4.755842 -12.567095 -8.877506 -16.864012 8.700685 -10.783473 19.562771 4.456500 -5.138400 15.026400 -6.351967 -0.685094 -1.625338 -79.196826 4.715214 17.542691 16.289543 -23.529304 -4.039537 -1.286759 -2.457120 0.712033 21.479798 23.259221 10.302800 -7.125000 0.000000 0.000000 -7.814700 57.352000 -2.373900 5.038228 1.588305 -1.011565 83.517548 -0.194380 13.673718 -19.825523 28.649243 -5.415722 0.361856 -0.111698 3.475439 -15.217365 9.125303 -2.554000 7.125000 0.000000 0.000000 8.129900 -20.476800 4.820200 
63.014700 108.729060 74.493774 13.983727 -74.395721 -6.645644 -3.170372 2.997614 4.043142 -15.991625 9.183115 7.677179 -1.570338 0.007261 2.247776 -4.185262 26.247116 4.922707 1.375800 -7.422800 -20.974000 -0.107134 -1.225280 0.146989 17.918883 -1.344225 -30.568660 -1.646169 -9.519999 26.842872 1.757744 -10.355482 1.591340 -0.720100 -5.422500 15.117700 -3.199015 -1.287482 8.689411 1.761902 -1.898452 0.873656 2.665558 -1.142108 -4.985831 -12.545843 -8.814643 -17.049036 8.555834 -10.616125 19.361798 4.411000 -5.078400 14.948100 -6.363465 -0.739766 -1.613504 -79.252799 4.148514 18.272091 16.125651 -23.255218 -3.953812 -1.256286 -2.457615 -0.988707 21.585532 22.589731 10.113400 -7.125000 0.000000 0.000000 -7.347900 56.651800 -2.106600 5.072270 1.585924 -1.037293 83.564776 -0.979056 13.601571 -19.187210 27.834561 -5.078054 0.375728 -0.108251 3.333920 -15.498437 8.790011 -2.509700 7.125000 0.000000 0.000000 7.926400 -20.809400 4.637300 
60.280758 109.068024 74.093508 10.989721 -76.113139 -3.908084 -3.225170 2.728880 3.861053 -14.687344 7.463804 3.212200 -0.758498 4.126495 12.992300 -4.706487 26.890236 3.421173 0.511200 -4.582900 -12.722700 0.060267 -1.207956 0.246990 20.149406 -2.677510 -28.971186 -1.481283 -9.117318 25.897655 1.335679 -8.312433 1.508005 -0.518600 -4.615400 12.814900 -2.176530 -1.186759 8.733058 1.923163 -1.639168 0.882263 2.388231 -1.020457 -5.029674 -12.386881 -8.650287 -17.083861 8.396729 -10.382206 19.194528 4.354900 -4.986100 14.813700 -6.429194 -0.794689 -1.569060 -79.344807 2.981607 17.674919 15.410971 -22.167667 -3.591040 -1.127595 -2.288051 0.535302 18.827840 20.768918 8.085100 -7.125000 0.000000 0.000000 -9.632800 54.067200 -2.162200 5.139646 1.616528 -1.046779 83.686473 -1.511411 13.121751 -18.331093 26.748630 -4.650756 0.353587 -0.126437 3.402686 -14.721354 9.078696 -2.459700 7.125000 0.000000 0.000000 8.490600 -20.533300 5.027800 
57.718104 109.171392 73.610910 8.845229 -77.639865 -2.491353 -3.042127 2.587441 3.601403 -13.251765 9.009241 -0.563780 0.510877 7.060530 21.363442 -3.933121 23.535443 4.960469 0.003400 -0.374100 -1.027900 0.188539 -1.225736 0.368981 21.452810 -2.994185 -26.585984 -1.375919 -8.799550 25.220289 1.018939 -6.692249 1.085121 -0.663000 -5.207400 14.500900 -1.483276 -0.992222 9.387826 2.005880 -1.296320 0.958442 2.098991 -0.856173 -5.281379 -12.448039 -8.529313 -17.068200 8.335181 -10.164350 19.105687 4.382800 -4.915800 14.737400 -6.542546 -0.851089 -1.516810 -79.756401 1.691781 16.388942 14.392169 -20.606450 -3.076841 -1.235186 -2.218267 0.532890 19.304847 19.969666 8.042200 -7.125000 0.000000 0.000000 -8.700300 53.279400 -1.782400 5.218773 1.671217 -1.040461 83.744385 -1.722094 12.724522 -17.230675 25.276202 -4.108876 0.366470 -0.138126 4.016166 -15.005678 8.785338 -2.433100 7.125000 0.000000 0.000000 8.284000 -20.811300 4.850400 
55.139820 109.256136 73.292982 2.424798 -79.273027 3.052719 -2.673010 2.431124 3.322798 -11.559379 8.957081 -3.347209 1.868121 9.458265 28.870298 -2.973173 18.557381 4.675488 0.069000 1.694700 4.662600 0.342732 -1.265329 0.484868 23.355680 -3.289155 -23.960118 -1.268564 -8.467140 24.481885 0.766783 -5.375492 0.580124 -0.706700 -5.373100 14.975900 -0.157051 -0.842521 9.510858 2.263675 -0.916148 1.225306 1.774156 -0.702226 -4.911669 -12.418552 -8.344543 -17.175129 8.278671 -9.872306 19.041292 4.401500 -4.796900 14.658400 -6.608214 -0.885741 -1.476942 -80.553249 0.746631 15.176580 13.933962 -19.848252 -2.838445 -1.314279 -2.320617 -0.615457 20.186121 20.802223 8.786700 -7.125000 0.000000 0.000000 -8.008800 54.389800 -1.856900 5.307153 1.682509 -1.013300 83.351588 -1.315876 12.579591 -16.077624 23.738539 -3.589310 0.321979 -0.180833 5.886459 -13.879279 9.269712 -2.371500 7.125000 0.000000 0.000000 9.100700 -20.337400 5.438600 
52.756860 109.096266 73.125300 -2.762302 -81.424829 7.321121 -2.349487 2.224299 3.062640 -10.854065 8.095745 -5.840068 3.178971 11.385021 35.521916 -1.653125 11.002152 3.610266 0.000200 0.100300 0.275600 0.464950 -1.254540 0.587625 24.728380 -4.075105 -21.682803 -1.222107 -8.221549 24.024917 0.489911 -3.932764 0.326639 -0.326100 -3.670400 10.151100 0.835843 -0.346950 10.052501 2.279678 -0.131401 1.323315 1.110092 -0.307050 -5.089571 -12.262612 -8.157647 -17.054523 8.122313 -9.711516 19.338378 4.345300 -4.748100 14.720600 -6.638877 -0.882339 -1.482234 -81.492401 0.629110 13.469721 13.900958 -19.714054 -2.796241 -1.310238 -2.275571 1.274613 19.377752 20.759243 8.383400 -7.125000 0.000000 0.000000 -8.907400 54.179600 -2.021800 5.353083 1.702115 -0.987853 83.051802 -0.862116 12.773373 -14.979648 22.207394 -3.109052 0.347202 -0.300668 7.139150 -15.134226 11.597428 -3.260300 7.125000 0.000000 0.000000 8.140600 -17.778400 5.320400 
